<svg width="15" height="13" viewBox="0 0 15 13" fill="none" xmlns="http://www.w3.org/2000/svg">
<path d="M12.7982 10.4488L10.8149 8.6125C11.4548 7.8555 11.802 6.92069 11.8007 5.95834C11.8007 5.10128 11.527 4.26348 11.0143 3.55086C10.5015 2.83825 9.77265 2.28284 8.91993 1.95486C8.06721 1.62688 7.1289 1.54106 6.22365 1.70827C5.31841 1.87547 4.48689 2.28818 3.83424 2.89421C3.1816 3.50023 2.73714 4.27236 2.55708 5.11294C2.37701 5.95353 2.46943 6.82482 2.82264 7.61663C3.17585 8.40844 3.77399 9.08522 4.54141 9.56137C5.30884 10.0375 6.2111 10.2917 7.13408 10.2917C8.17046 10.2929 9.17717 9.97045 9.99241 9.37625L11.9699 11.2179C12.0241 11.2687 12.0887 11.309 12.1597 11.3365C12.2308 11.364 12.3071 11.3781 12.3841 11.3781C12.4611 11.3781 12.5373 11.364 12.6084 11.3365C12.6795 11.309 12.744 11.2687 12.7982 11.2179C12.8529 11.1676 12.8963 11.1077 12.9259 11.0416C12.9555 10.9756 12.9708 10.9048 12.9708 10.8333C12.9708 10.7618 12.9555 10.691 12.9259 10.625C12.8963 10.559 12.8529 10.4991 12.7982 10.4488ZM3.63408 5.95834C3.63408 5.31555 3.83935 4.68719 4.22393 4.15273C4.60852 3.61827 5.15514 3.20171 5.79468 2.95573C6.43423 2.70974 7.13796 2.64538 7.81689 2.77078C8.49583 2.89619 9.11947 3.20572 9.60895 3.66024C10.0984 4.11476 10.4318 4.69385 10.5668 5.32429C10.7019 5.95473 10.6326 6.6082 10.3677 7.20206C10.1027 7.79592 9.65414 8.3035 9.07857 8.66061C8.503 9.01773 7.82631 9.20834 7.13408 9.20834C6.20582 9.20834 5.31558 8.86593 4.6592 8.25643C4.00283 7.64694 3.63408 6.82029 3.63408 5.95834Z" fill="white"/>
</svg>
