<svg width="18" height="18" viewBox="0 0 18 18" fill="none" xmlns="http://www.w3.org/2000/svg">
<path d="M10.8292 5.98783C10.9843 5.98783 11.1099 5.86216 11.1099 5.70714C11.1099 5.55212 10.9843 5.42645 10.8292 5.42645C10.6742 5.42645 10.5486 5.55212 10.5486 5.70714C10.5486 5.86216 10.6742 5.98783 10.8292 5.98783Z" fill="white"/>
<path d="M6.91087 14.4354C6.96937 14.2914 7.13419 14.2234 7.27819 14.283C7.4205 14.3409 7.48969 14.5063 7.43006 14.6503C7.371 14.7932 7.20619 14.8618 7.06331 14.8016C6.92044 14.7426 6.85125 14.5778 6.91087 14.4354Z" fill="white"/>
<path d="M12.3806 7.02451C12.5357 7.02451 12.6613 6.89884 12.6613 6.74382C12.6613 6.5888 12.5357 6.46313 12.3806 6.46313C12.2256 6.46313 12.0999 6.5888 12.0999 6.74382C12.0999 6.89884 12.2256 7.02451 12.3806 7.02451Z" fill="white"/>
<path d="M5.61937 13.7869C5.77439 13.7869 5.90006 13.6612 5.90006 13.5062C5.90006 13.3512 5.77439 13.2255 5.61937 13.2255C5.46435 13.2255 5.33868 13.3512 5.33868 13.5062C5.33868 13.6612 5.46435 13.7869 5.61937 13.7869Z" fill="white"/>
<path d="M13.4173 8.5759C13.5723 8.5759 13.698 8.45023 13.698 8.29521C13.698 8.14019 13.5723 8.01453 13.4173 8.01453C13.2623 8.01453 13.1366 8.14019 13.1366 8.29521C13.1366 8.45023 13.2623 8.5759 13.4173 8.5759Z" fill="white"/>
<path d="M4.58269 12.2355C4.73771 12.2355 4.86338 12.1098 4.86338 11.9548C4.86338 11.7998 4.73771 11.6741 4.58269 11.6741C4.42767 11.6741 4.302 11.7998 4.302 11.9548C4.302 12.1098 4.42767 12.2355 4.58269 12.2355Z" fill="white"/>
<path d="M13.7812 10.4062C13.9366 10.4062 14.0625 10.2803 14.0625 10.125C14.0625 9.96967 13.9366 9.84375 13.7812 9.84375C13.6259 9.84375 13.5 9.96967 13.5 10.125C13.5 10.2803 13.6259 10.4062 13.7812 10.4062Z" fill="white"/>
<path d="M4.21875 10.4062C4.37408 10.4062 4.5 10.2803 4.5 10.125C4.5 9.96967 4.37408 9.84375 4.21875 9.84375C4.06342 9.84375 3.9375 9.96967 3.9375 10.125C3.9375 10.2803 4.06342 10.4062 4.21875 10.4062Z" fill="white"/>
<path d="M13.4179 12.2355C13.5732 12.2355 13.6991 12.1096 13.6991 11.9542C13.6991 11.7989 13.5732 11.673 13.4179 11.673C13.2625 11.673 13.1366 11.7989 13.1366 11.9542C13.1366 12.1096 13.2625 12.2355 13.4179 12.2355Z" fill="white"/>
<path d="M4.58212 8.57703C4.73745 8.57703 4.86337 8.45111 4.86337 8.29578C4.86337 8.14045 4.73745 8.01453 4.58212 8.01453C4.42679 8.01453 4.30087 8.14045 4.30087 8.29578C4.30087 8.45111 4.42679 8.57703 4.58212 8.57703Z" fill="white"/>
<path d="M12.3812 13.7869C12.5365 13.7869 12.6624 13.6609 12.6624 13.5056C12.6624 13.3503 12.5365 13.2244 12.3812 13.2244C12.2258 13.2244 12.0999 13.3503 12.0999 13.5056C12.0999 13.6609 12.2258 13.7869 12.3812 13.7869Z" fill="white"/>
<path d="M5.6188 7.02563C5.77414 7.02563 5.90005 6.89971 5.90005 6.74438C5.90005 6.58905 5.77414 6.46313 5.6188 6.46313C5.46347 6.46313 5.33755 6.58905 5.33755 6.74438C5.33755 6.89971 5.46347 7.02563 5.6188 7.02563Z" fill="white"/>
<path d="M10.8298 14.8236C10.9852 14.8236 11.1111 14.6977 11.1111 14.5424C11.1111 14.387 10.9852 14.2611 10.8298 14.2611C10.6745 14.2611 10.5486 14.387 10.5486 14.5424C10.5486 14.6977 10.6745 14.8236 10.8298 14.8236Z" fill="white"/>
<path d="M7.1702 5.98895C7.32553 5.98895 7.45145 5.86303 7.45145 5.7077C7.45145 5.55237 7.32553 5.42645 7.1702 5.42645C7.01487 5.42645 6.88895 5.55237 6.88895 5.7077C6.88895 5.86303 7.01487 5.98895 7.1702 5.98895Z" fill="white"/>
<path d="M9 15.1875C9.15533 15.1875 9.28125 15.0616 9.28125 14.9062C9.28125 14.7509 9.15533 14.625 9 14.625C8.84467 14.625 8.71875 14.7509 8.71875 14.9062C8.71875 15.0616 8.84467 15.1875 9 15.1875Z" fill="white"/>
<path d="M9 5.625C9.15533 5.625 9.28125 5.49908 9.28125 5.34375C9.28125 5.18842 9.15533 5.0625 9 5.0625C8.84467 5.0625 8.71875 5.18842 8.71875 5.34375C8.71875 5.49908 8.84467 5.625 9 5.625Z" fill="white"/>
<path d="M9 9.84375C8.84475 9.84375 8.71875 9.71775 8.71875 9.5625V6.1875C8.71875 6.03225 8.84475 5.90625 9 5.90625C9.15525 5.90625 9.28125 6.03225 9.28125 6.1875V9.5625C9.28125 9.71775 9.15525 9.84375 9 9.84375Z" fill="white"/>
<path d="M9 10.9688C8.53481 10.9688 8.15625 10.5902 8.15625 10.125C8.15625 9.65981 8.53481 9.28125 9 9.28125C9.46519 9.28125 9.84375 9.65981 9.84375 10.125C9.84375 10.5902 9.46519 10.9688 9 10.9688ZM9 9.84375C8.84475 9.84375 8.71875 9.97031 8.71875 10.125C8.71875 10.2797 8.84475 10.4062 9 10.4062C9.15525 10.4062 9.28125 10.2797 9.28125 10.125C9.28125 9.97031 9.15525 9.84375 9 9.84375Z" fill="white"/>
<path d="M13.1327 4.7177C13.0753 4.7177 13.0174 4.70026 12.9679 4.6637C12.8425 4.57258 12.8143 4.39651 12.906 4.27108L13.5669 3.36151C13.6575 3.23551 13.8336 3.20795 13.9596 3.29964C14.085 3.39076 14.1131 3.56683 14.0215 3.69226L13.3605 4.60182C13.3054 4.6772 13.2199 4.7177 13.1327 4.7177ZM4.86732 4.71826C4.78014 4.71826 4.69464 4.67833 4.63951 4.60239L3.97857 3.6917C3.88745 3.56626 3.91501 3.3902 4.04101 3.29907C4.16757 3.20795 4.34307 3.23551 4.4342 3.36095L5.09514 4.27108C5.1857 4.39708 5.15757 4.57314 5.03214 4.66426C4.98207 4.70026 4.92414 4.71826 4.86732 4.71826Z" fill="white"/>
<path d="M9.28125 3.375C9.126 3.375 9 3.249 9 3.09375V1.96875C9 1.8135 9.126 1.6875 9.28125 1.6875C9.4365 1.6875 9.5625 1.8135 9.5625 1.96875V3.09375C9.5625 3.249 9.4365 3.375 9.28125 3.375Z" fill="white"/>
<path d="M9 17.4375C4.968 17.4375 1.6875 14.157 1.6875 10.125C1.6875 8.24456 2.40019 6.4575 3.69338 5.09344C3.80025 4.98094 3.978 4.977 4.09106 5.08219C4.20412 5.18906 4.20862 5.36737 4.10175 5.47987C2.90756 6.73987 2.25 8.38969 2.25 10.125C2.25 13.8471 5.27794 16.875 9 16.875C12.7221 16.875 15.75 13.8471 15.75 10.125C15.75 7.97569 14.76 6.00356 13.0343 4.71319C12.9099 4.62037 12.8841 4.44375 12.9774 4.31944C13.0708 4.19512 13.2469 4.16925 13.3712 4.26262C15.2404 5.66044 16.3125 7.79625 16.3125 10.125C16.3125 14.157 13.032 17.4375 9 17.4375ZM4.86675 4.71769C4.77956 4.71769 4.69406 4.67775 4.63894 4.60181C4.54725 4.47637 4.57538 4.30031 4.70081 4.20919C5.95688 3.29512 7.443 2.8125 9 2.8125C10.1346 2.8125 11.2224 3.06506 12.2327 3.564C12.3722 3.63262 12.4296 3.80138 12.3604 3.94088C12.2923 4.07981 12.1241 4.13775 11.9841 4.06856C11.0514 3.60844 10.0474 3.375 9 3.375C7.56281 3.375 6.19088 3.8205 5.03156 4.66369C4.98206 4.69969 4.92413 4.71769 4.86675 4.71769Z" fill="white"/>
<path d="M9 16.3125C5.58844 16.3125 2.8125 13.5366 2.8125 10.125C2.8125 6.71344 5.58844 3.9375 9 3.9375C12.4116 3.9375 15.1875 6.71344 15.1875 10.125C15.1875 13.5366 12.4116 16.3125 9 16.3125ZM9 4.5C5.89838 4.5 3.375 7.02338 3.375 10.125C3.375 13.2266 5.89838 15.75 9 15.75C12.1016 15.75 14.625 13.2266 14.625 10.125C14.625 7.02338 12.1016 4.5 9 4.5ZM9.84375 2.25H9.28125C9.126 2.25 9 2.124 9 1.96875C9 1.8135 9.126 1.6875 9.28125 1.6875H9.5625V1.125H8.4375V1.40625C8.4375 1.5615 8.3115 1.6875 8.15625 1.6875C8.001 1.6875 7.875 1.5615 7.875 1.40625V0.84375C7.875 0.6885 8.001 0.5625 8.15625 0.5625H9.84375C9.999 0.5625 10.125 0.6885 10.125 0.84375V1.96875C10.125 2.124 9.999 2.25 9.84375 2.25Z" fill="white"/>
</svg>
